<svg width="500" height="500" viewBox="0 0 500 500" fill="none" xmlns="http://www.w3.org/2000/svg">
<path d="M201.56 192.05L311.717 159.363L262.082 306.433L295.111 295.93L219.636 473.844L229.401 339.019L200.747 345.684L201.56 192.05Z" fill="#292929" stroke="#292929"/>
<path d="M288.247 106.263C288.247 134.474 263.703 157.947 233.844 157.947C203.986 157.947 191.255 142.551 181.227 123.724C181.227 123.724 178.388 114.711 174.935 113.187C167.491 109.903 169.069 104.457 171.016 100.472C173.754 94.8666 185.523 99.3044 188.513 93.8287C191.165 88.9697 193.468 85.7478 185.075 77.5809C180.067 72.7081 181.919 63.5046 186.586 59.8339C191.384 56.0595 201.03 56.5187 204.686 62.6208C210.181 71.7893 218.491 69.4337 221.139 66.838C227.902 60.2094 220.902 49.3102 227.408 46.419C231.352 44.6664 240.442 45.5033 239.141 51.8942C238.072 57.1462 242.958 53.4203 267.589 66.3889C284.575 75.3326 288.247 92.158 288.247 106.263Z" fill="#292929" stroke="#292929"/>
<path d="M188.689 178.98L299.809 145.816L311.717 159.363L201.56 192.05L200.747 345.684L188.645 331.912L188.689 178.98Z" fill="#C6D728" stroke="#C6D728"/>
<path d="M229.401 339.019L219.636 473.844L205.299 460.252L214.442 343.281L229.401 339.019Z" fill="#C6D728" stroke="#C6D728"/>
<path d="M262.082 306.433L295.111 295.93L284.115 281.969L268.412 286.775L262.082 306.433Z" fill="#C6D728" stroke="#C6D728"/>
<path d="M160.577 184.934C164.292 184.934 167.304 182.132 167.304 178.675C167.304 175.218 164.292 172.416 160.577 172.416C156.862 172.416 153.851 175.218 153.851 178.675C153.851 182.132 156.862 184.934 160.577 184.934Z" fill="#292929" stroke="#C6D728"/>
<path d="M159.509 122.113C162.037 122.113 164.087 120.04 164.087 117.482C164.087 114.925 162.037 112.851 159.509 112.851C156.981 112.851 154.932 114.925 154.932 117.482C154.932 120.04 156.981 122.113 159.509 122.113Z" fill="#292929" stroke="#C6D728"/>
<path d="M313.899 145.241C316.33 145.241 318.3 143.406 318.3 141.142C318.3 138.878 316.33 137.043 313.899 137.043C311.469 137.043 309.498 138.878 309.498 141.142C309.498 143.406 311.469 145.241 313.899 145.241Z" fill="#292929" stroke="#C6D728" stroke-width="1.1678"/>
<path d="M299.256 100.085C301.78 100.085 303.826 98.1353 303.826 95.73C303.826 93.3247 301.78 91.3749 299.256 91.3749C296.731 91.3749 294.685 93.3247 294.685 95.73C294.685 98.1353 296.731 100.085 299.256 100.085Z" fill="#292929" stroke="#C6D728" stroke-width="1.36452"/>
<path d="M284.886 41.2554C288.384 41.2554 291.22 38.5442 291.22 35.1999C291.22 31.8555 288.384 29.1443 284.886 29.1443C281.388 29.1443 278.552 31.8555 278.552 35.1999C278.552 38.5442 281.388 41.2554 284.886 41.2554Z" fill="#292929" stroke="#C6D728" stroke-width="1.44343"/>
<path d="M270.51 65.5848C270.51 65.5848 287.824 60.8963 299.505 65.1122C305.346 67.2202 315.162 73.7158 319.364 82.3148C323.566 90.9137 322.154 101.616 322.154 101.616C322.154 101.616 319.966 93.9939 315.751 87.6421C311.535 81.2904 305.292 76.2091 299.253 74.2217C287.174 70.2469 276.768 72.9368 276.768 72.9368C276.768 72.9368 274.215 70.5349 273.171 69.3031C272.128 68.0713 270.51 65.5848 270.51 65.5848Z" fill="#404040" stroke="#C6D728"/>
<path d="M183.927 158.588C183.927 158.588 214.883 147.55 230.737 114.743C246.591 81.9355 259.145 68.6693 270.51 65.5848C281.876 62.5003 276.768 72.9368 276.768 72.9368C276.768 72.9368 267.424 76.8563 260.878 83.2931C252.348 91.6808 243.132 106.475 236.216 119.187C222.526 144.351 183.927 158.588 183.927 158.588Z" fill="#29292A" stroke="#C6D728"/>
<path d="M190.084 84.7315L207.493 89.4206L207.23 89.3354C207.23 89.3354 200.013 88.1094 196.386 87.6213C194.121 87.3164 189.571 86.8632 189.571 86.8632L190.084 84.7315Z" fill="#29292A" stroke="#C6D728"/>
<path d="M143.815 142.38C138.547 136.602 134.995 128.083 135.861 120.311C137.169 108.572 145.052 96.9295 154.92 90.4376C164.84 83.9113 190.084 84.7315 190.084 84.7315L189.571 86.8632C189.571 86.8632 166.133 88.3504 157.473 95.2239C149.914 101.224 142.906 111.265 144.004 120.853C145.075 130.209 153.269 140.189 162.459 142.243C176.728 145.431 202.521 124.388 202.521 124.388C202.521 124.388 193.712 135.106 188.084 139.009C180.186 144.487 171.377 150.876 161.765 150.792C155.158 150.735 148.267 147.263 143.815 142.38Z" fill="#404040"/>
<path d="M163.827 150.958C163.827 150.958 190.04 148.103 200.351 140.797C222.799 124.889 236.356 92.1301 247.578 73.1042C247.578 73.1042 263.875 46.566 295.861 55.0318C295.861 55.0318 260.443 42.2823 234.319 77.5556C221.317 95.1101 212.706 114.352 198.188 129.744C192.263 136.026 185.647 140.44 177.784 145.711C173.512 148.575 163.827 150.958 163.827 150.958Z" fill="#C6D728" stroke="black"/>
<path d="M248.096 114.678C248.096 114.678 265.958 121.22 275.317 122.333C282.013 123.129 289.08 123.541 295.53 121.578C299.996 120.218 304.184 117.558 307.441 114.215C310.498 111.078 313.181 107.153 314.056 102.862C314.95 98.4769 313.871 93.76 312.376 89.5419C310.69 84.7832 304.386 76.6751 304.386 76.6751C304.386 76.6751 310.626 80.4574 314.102 85.4201C315.82 87.8724 318.821 92.6615 320.326 96.6759C321.285 99.233 322.434 100.808 322.016 102.925C320.247 111.867 313.475 120.451 305.368 124.617C295.709 129.581 283.464 127.786 272.806 125.701C263.955 123.97 248.096 114.678 248.096 114.678Z" fill="#C6D728" stroke="#C6D728"/>
</svg>
